<svg width="24" height="24" viewBox="0 0 24 24" fill="none" xmlns="http://www.w3.org/2000/svg">
<path d="M18.9205 15.3908C18.7637 15.7601 18.4012 16 18 16L5.99997 16C5.59871 16 5.2363 15.7601 5.07949 15.3908C4.92268 15.0214 5.00185 14.5941 5.28056 14.3054L10.6012 8.79449L10.6012 8.79449C10.7425 8.64797 10.9101 8.47422 11.0737 8.34488C11.2698 8.18995 11.5789 8 12 8C12.4211 8 12.7302 8.18995 12.9262 8.34488C13.0899 8.47422 13.2574 8.64797 13.3987 8.79449L18.7194 14.3054C18.9981 14.5941 19.0773 15.0214 18.9205 15.3908Z" fill="currentColor"/>
</svg>
