<svg width="16" height="17" viewBox="0 0 16 17" fill="none" xmlns="http://www.w3.org/2000/svg">
<path d="M8 15.167C7.45455 15.167 6.93346 14.9469 5.89129 14.5066C3.2971 13.4108 2 12.8628 2 11.9412C2 11.6831 2 7.21 2 5.16699M8 15.167C8.54546 15.167 9.06654 14.9469 10.1087 14.5066C12.7029 13.4108 14 12.8628 14 11.9412V5.16699M8 15.167L8 8.07022" stroke="currentColor" stroke-width="1.5" stroke-linecap="round" stroke-linejoin="round"/>
<path d="M5.55061 6.96157L3.60314 6.01921C2.53438 5.50205 2 5.24347 2 4.83398C2 4.4245 2.53438 4.16592 3.60314 3.64875L5.55061 2.7064C6.75256 2.12479 7.35353 1.83398 8 1.83398C8.64647 1.83398 9.24744 2.12479 10.4494 2.70639L12.3969 3.64875C13.4656 4.16592 14 4.4245 14 4.83398C14 5.24347 13.4656 5.50205 12.3969 6.01922L10.4494 6.96157C9.24744 7.54318 8.64647 7.83398 8 7.83398C7.35353 7.83398 6.75256 7.54318 5.55061 6.96157Z" stroke="currentColor" stroke-width="1.5" stroke-linecap="round" stroke-linejoin="round"/>
<path d="M4 8.5L5.33333 9.16667" stroke="currentColor" stroke-width="1.5" stroke-linecap="round" stroke-linejoin="round"/>
<path d="M11.3337 3.16699L4.66699 6.50033" stroke="currentColor" stroke-width="1.5" stroke-linecap="round" stroke-linejoin="round"/>
</svg>
