<svg width="16" height="16" viewBox="0 0 16 16" fill="none" xmlns="http://www.w3.org/2000/svg">
<g clip-path="url(#clip0_211_4725)">
<path d="M11.6667 14.6668V13.8905C11.6667 13.2753 11.9991 12.7909 12.3333 12.3333M5.33333 14.6668C5.33333 13.922 5.08386 13.018 4.62471 12.4315L2.22492 9.36601C1.9172 8.95443 1.92605 8.38613 2.24643 7.9844C2.66515 7.45936 3.44585 7.41598 3.9198 7.89143L5 8.97502V5" stroke="currentColor" stroke-width="1.5" stroke-linecap="round" stroke-linejoin="round"/>
<path d="M9.00085 3.66683C9.00085 3.11454 9.44857 2.66683 10.0009 2.66683C10.5531 2.66683 11.0009 3.11454 11.0009 3.66683V5.00016M9.00085 3.66683V2.3335C9.00085 1.78121 8.55314 1.3335 8.00085 1.3335C7.44857 1.3335 7.00085 1.78121 7.00085 2.3335L7.00099 3.3335M9.00085 3.66683V6.33366M7.00099 3.3335C7.00076 2.78141 6.55313 2.33428 6.00099 2.33392C5.44885 2.33357 5.33301 2.66683 5.33301 2.66683M7.00099 3.3335V4.3338M11.0009 8.00016V5.00016M11.0009 5.00016C11.0009 4.44788 11.4486 4.00016 12.0009 4.00016C12.5531 4.00016 13.0009 4.44788 13.0009 5.00016V9.11138C13.0009 9.58764 13.0009 9.9933 12.993 10.3335" stroke="currentColor" stroke-width="1.5" stroke-linecap="round" stroke-linejoin="round"/>
<path d="M1.33301 1.3335L14.6663 14.6668" stroke="currentColor" stroke-width="1.5" stroke-linecap="round"/>
</g>
<defs>
<clipPath id="clip0_211_4725">
<rect width="16" height="16" fill="white"/>
</clipPath>
</defs>
</svg>
