<svg width="16" height="16" viewBox="0 0 16 16" fill="none" xmlns="http://www.w3.org/2000/svg">
<g clip-path="url(#clip0_206_2101)">
<path d="M7.33301 14.6665C6.78755 14.6665 6.26647 14.4464 5.22429 14.0061C2.6301 12.9103 1.33301 12.3624 1.33301 11.4407C1.33301 11.1826 1.33301 6.70951 1.33301 4.6665M7.33301 14.6665L7.33301 7.56973M7.33301 14.6665C7.74416 14.6665 8.07969 14.5414 8.66634 14.2913M13.333 4.6665V7.99984" stroke="currentColor" stroke-width="1.5" stroke-linecap="round" stroke-linejoin="round"/>
<path d="M10.666 10L12.666 12M12.666 12L14.666 14M12.666 12L10.666 14M12.666 12L14.666 10" stroke="currentColor" stroke-width="1.5" stroke-linecap="round"/>
<path d="M4.88362 6.4606L2.93615 5.51824C1.86739 5.00108 1.33301 4.74249 1.33301 4.33301C1.33301 3.92352 1.86739 3.66494 2.93615 3.14778L4.88362 2.20542C6.08556 1.62381 6.68654 1.33301 7.33301 1.33301C7.97948 1.33301 8.58045 1.62381 9.78239 2.20542L11.7299 3.14778C12.7986 3.66494 13.333 3.92352 13.333 4.33301C13.333 4.74249 12.7986 5.00108 11.7299 5.51824L9.78239 6.4606C8.58045 7.0422 7.97948 7.33301 7.33301 7.33301C6.68654 7.33301 6.08556 7.0422 4.88362 6.4606Z" stroke="currentColor" stroke-width="1.5" stroke-linecap="round" stroke-linejoin="round"/>
<path d="M3.33301 8L4.66634 8.66667" stroke="currentColor" stroke-width="1.5" stroke-linecap="round" stroke-linejoin="round"/>
<path d="M10.6667 2.6665L4 5.99984" stroke="currentColor" stroke-width="1.5" stroke-linecap="round" stroke-linejoin="round"/>
</g>
<defs>
<clipPath id="clip0_206_2101">
<rect width="16" height="16" fill="white"/>
</clipPath>
</defs>
</svg>
