<svg width="16" height="16" viewBox="0 0 16 16" fill="none" xmlns="http://www.w3.org/2000/svg">
<circle cx="11.3333" cy="12.6663" r="1.33333" stroke="currentColor" stroke-width="1.5"/>
<ellipse cx="4.66634" cy="12.6663" rx="1.33333" ry="1.33333" stroke="currentColor" stroke-width="1.5"/>
<path d="M1.33301 6.00016V9.29817C1.33301 10.8862 1.33301 11.6802 1.82116 12.1735C2.14574 12.5015 2.60186 12.6114 3.33301 12.6483M8.28437 3.3335C8.89325 3.53343 9.37062 4.01586 9.56845 4.63119C9.66634 4.93564 9.66634 5.31185 9.66634 6.06425C9.66634 6.56585 9.66634 6.81665 9.7316 7.01962C9.86349 7.42984 10.1817 7.75146 10.5877 7.88475C10.7885 7.9507 11.0367 7.9507 11.533 7.9507H14.6663V9.29817C14.6663 10.8862 14.6663 11.6802 14.1782 12.1735C13.8536 12.5015 13.3975 12.6114 12.6663 12.6483M5.99967 12.6668H9.99967" stroke="currentColor" stroke-width="1.5" stroke-linecap="round" stroke-linejoin="round"/>
<path d="M9.66602 4.6665H10.8802C11.8504 4.6665 12.3355 4.6665 12.7303 4.90231C13.1251 5.13812 13.3551 5.56525 13.8151 6.4195L14.666 7.99984" stroke="currentColor" stroke-width="1.5" stroke-linecap="round" stroke-linejoin="round"/>
<path d="M4.8837 5.33333L5.87474 4.55055C6.40226 4.13388 6.66602 3.92555 6.66602 3.66667M4.8837 2L5.87474 2.78278C6.40226 3.19945 6.66602 3.40778 6.66602 3.66667M6.66602 3.66667L1.33268 3.66667" stroke="currentColor" stroke-width="1.5" stroke-linecap="round" stroke-linejoin="round"/>
</svg>
