<svg width="17" height="16" viewBox="0 0 17 16" fill="none" xmlns="http://www.w3.org/2000/svg">
<path d="M4.42796 9.12867C4.49893 9.53676 4.88729 9.81004 5.29538 9.73907C5.70346 9.6681 5.97675 9.27975 5.90578 8.87166L4.42796 9.12867ZM4.04038 2.52286L3.30147 2.65136V2.65136L4.04038 2.52286ZM6.02582 2.10261L5.29821 2.28451L6.02582 2.10261ZM7.16687 6.66683L6.43926 6.84873C6.52273 7.18261 6.82272 7.41683 7.16687 7.41683C7.51102 7.41683 7.81101 7.18261 7.89448 6.84873L7.16687 6.66683ZM8.76162 6.86982C8.68963 7.27773 8.96195 7.66677 9.36986 7.73875C9.77778 7.81073 10.1668 7.53841 10.2388 7.1305L8.76162 6.86982ZM10.2902 2.52353L11.0288 2.65386V2.65386L10.2902 2.52353ZM8.30822 2.10144L7.58061 1.91954L7.58061 1.91954L8.30822 2.10144ZM11.0835 7.3335C11.0835 7.74771 11.4193 8.0835 11.8335 8.0835C12.2478 8.0835 12.5835 7.74771 12.5835 7.3335H11.0835ZM10.7762 5.36211L10.9308 4.62819L10.9308 4.62819L10.7762 5.36211ZM4.21173 11.3196L3.59124 11.7409C3.60214 11.757 3.61367 11.7726 3.62579 11.7878L4.21173 11.3196ZM5.54188 12.9844L6.12783 12.5163L6.12782 12.5163L5.54188 12.9844ZM3.17033 9.29164L2.42165 9.33612L3.17033 9.29164ZM13.2192 11.8837L12.5287 11.591L12.5287 11.591L13.2192 11.8837ZM11.8335 5.5835C11.4193 5.5835 11.0835 5.91928 11.0835 6.3335C11.0835 6.74771 11.4193 7.0835 11.8335 7.0835V5.5835ZM12.5964 12.9429L13.2158 13.3659L13.2158 13.3659L12.5964 12.9429ZM11.3704 14.6668C11.3704 15.081 11.7062 15.4168 12.1204 15.4168C12.5347 15.4168 12.8704 15.081 12.8704 14.6668H11.3704ZM5.08354 14.6668C5.08354 15.081 5.41932 15.4168 5.83354 15.4168C6.24775 15.4168 6.58354 15.081 6.58354 14.6668H5.08354ZM14.5835 9.00016C14.5835 8.58595 14.2478 8.25016 13.8335 8.25016C13.4193 8.25016 13.0835 8.58595 13.0835 9.00016L14.5835 9.00016ZM5.90578 8.87166L5.50001 6.53847L4.02219 6.79548L4.42796 9.12867L5.90578 8.87166ZM5.50001 6.53847L4.77929 2.39435L3.30147 2.65136L4.02219 6.79548L5.50001 6.53847ZM5.29821 2.28451L6.43926 6.84873L7.89448 6.48493L6.75342 1.92071L5.29821 2.28451ZM5.04075 2.0835C5.16253 2.0835 5.26868 2.16637 5.29821 2.28451L6.75342 1.92071C6.55695 1.13482 5.85083 0.583496 5.04075 0.583496V2.0835ZM4.77929 2.39435C4.75106 2.23204 4.876 2.0835 5.04075 2.0835V0.583496C3.94481 0.583496 3.1137 1.57163 3.30147 2.65136L4.77929 2.39435ZM10.2388 7.1305L10.4741 5.79717L8.99691 5.53649L8.76162 6.86982L10.2388 7.1305ZM10.4741 5.79717L11.0288 2.65386L9.55161 2.39319L8.99691 5.53649L10.4741 5.79717ZM7.58061 1.91954L6.43926 6.48493L7.89448 6.84873L9.03582 2.28335L7.58061 1.91954ZM9.29179 0.583496C8.48242 0.583496 7.77691 1.13434 7.58061 1.91954L9.03582 2.28335C9.06519 2.16589 9.17072 2.0835 9.29179 2.0835V0.583496ZM11.0288 2.65386C11.2194 1.5738 10.3885 0.583496 9.29179 0.583496V2.0835C9.45584 2.0835 9.58012 2.23163 9.55161 2.39319L11.0288 2.65386ZM11.0835 6.66683V7.3335H12.5835V6.66683H11.0835ZM10.6217 6.09602C10.8857 6.15159 11.0835 6.38697 11.0835 6.66683H12.5835C12.5835 5.66322 11.8746 4.8269 10.9308 4.62819L10.6217 6.09602ZM3.62579 11.7878L4.95594 13.4526L6.12782 12.5163L4.79767 10.8515L3.62579 11.7878ZM4.83223 10.8983C4.48762 10.3908 4.25984 10.0538 4.10906 9.77769C3.96506 9.51395 3.92604 9.36557 3.91901 9.24715L2.42165 9.33612C2.44679 9.75926 2.59207 10.1294 2.79252 10.4965C2.9862 10.8512 3.26302 11.2575 3.59124 11.7409L4.83223 10.8983ZM13.0835 9.00016C13.0835 9.8938 12.9767 10.446 12.8684 10.7986C12.7456 11.1983 12.6619 11.2767 12.5287 11.591L13.9097 12.1764C13.9337 12.1199 14.1572 11.7111 14.3022 11.2391C14.4618 10.7199 14.5835 10.0158 14.5835 9.00016L13.0835 9.00016ZM13.8335 9.00016C14.5835 9.00016 14.5835 8.99988 14.5835 8.99958C14.5835 8.99947 14.5835 8.99916 14.5835 8.99894C14.5835 8.99849 14.5835 8.998 14.5835 8.99746C14.5835 8.9964 14.5835 8.99516 14.5835 8.99377C14.5835 8.99097 14.5835 8.98752 14.5834 8.98344C14.5833 8.97528 14.5831 8.96456 14.5828 8.95147C14.5822 8.9253 14.5809 8.88951 14.5786 8.84546C14.5738 8.75757 14.5646 8.63554 14.5465 8.49047C14.5107 8.20422 14.4379 7.8092 14.2858 7.40349C14.1348 7.00088 13.8906 6.54741 13.4881 6.18961C13.07 5.81804 12.5179 5.5835 11.8335 5.5835V7.0835C12.1491 7.0835 12.347 7.18229 12.4915 7.31072C12.6515 7.45292 12.7823 7.66611 12.8813 7.93017C12.9791 8.19112 13.0314 8.46277 13.0581 8.67652C13.0712 8.78145 13.0776 8.86776 13.0807 8.9257C13.0823 8.95456 13.083 8.97607 13.0833 8.98896C13.0834 8.9954 13.0835 8.99966 13.0835 9.00159C13.0835 9.00255 13.0835 9.00292 13.0835 9.00269C13.0835 9.00258 13.0835 9.00231 13.0835 9.00189C13.0835 9.00168 13.0835 9.00143 13.0835 9.00114C13.0835 9.001 13.0835 9.00075 13.0835 9.00068C13.0835 9.00043 13.0835 9.00016 13.8335 9.00016ZM13.2158 13.3659C13.4361 13.0431 13.7195 12.6251 13.9097 12.1764L12.5287 11.591C12.4053 11.8822 12.207 12.1831 11.977 12.52L13.2158 13.3659ZM11.977 12.52C11.4737 13.2572 11.3704 13.9076 11.3704 14.6668H12.8704C12.8704 14.0943 12.9377 13.7731 13.2158 13.3659L11.977 12.52ZM4.95594 13.4526C5.02078 13.5338 5.06593 13.6477 5.08395 13.8553C5.10561 14.1048 5.08354 14.2993 5.08354 14.6668H6.58354C6.58354 14.4618 6.60689 14.0545 6.57833 13.7256C6.54615 13.3548 6.44547 12.9139 6.12783 12.5163L4.95594 13.4526ZM4.2051 6.16362C3.93752 6.45918 3.47008 6.92838 3.1105 7.41944C2.75373 7.90665 2.37644 8.57518 2.42165 9.33612L3.91901 9.24715C3.90578 9.02456 4.01962 8.71684 4.32072 8.30564C4.61901 7.89828 4.97617 7.54691 5.3171 7.17032L4.2051 6.16362ZM10.455 5.87837C10.4194 5.99964 10.3435 6.06687 10.3075 6.09103C10.2787 6.11033 10.2749 6.10404 10.3178 6.09482C10.3564 6.08653 10.41 6.08088 10.4716 6.08144C10.5331 6.08199 10.5864 6.08858 10.6217 6.09602L10.9308 4.62819C10.6626 4.57174 10.32 4.56007 10.0025 4.62833C9.73215 4.68645 9.18715 4.87297 9.01595 5.45529L10.455 5.87837ZM13.0835 9.00016C13.0835 9.00016 13.8335 9.00016 14.5835 9.00016C14.5835 9.00016 14.5835 9.00016 13.8335 9.00016C13.0835 9.00016 13.0835 9.00016 13.0835 9.00016C13.8335 9.00016 14.5835 9.00016 14.5835 9.00016L13.0835 9.00016Z" fill="currentColor"/>
</svg>
