<svg width="16" height="17" viewBox="0 0 16 17" fill="none" xmlns="http://www.w3.org/2000/svg">
<path d="M12.6673 10.5007V13.0932C12.6673 14.5765 12.1769 15.1673 10.5932 15.1673H5.40806C3.92476 15.1673 3.33398 14.6769 3.33398 13.0932V10.5007C3.33398 7.92332 5.42332 5.83398 8.00065 5.83398C10.578 5.83398 12.6673 7.92332 12.6673 10.5007Z" stroke="currentColor" stroke-width="1.5" stroke-linecap="round"/>
<path d="M10.6673 10.5007C10.6673 9.02789 9.47341 7.83398 8.00065 7.83398C6.52789 7.83398 5.33398 9.02789 5.33398 10.5007" stroke="currentColor" stroke-width="1.5" stroke-linecap="round"/>
<path d="M8 11.8333L8.66667 10.5" stroke="currentColor" stroke-width="1.5" stroke-linecap="round"/>
<path d="M10.8753 3.83398H5.12536C4.5363 3.83398 4.24176 3.83398 3.9826 3.73262C3.89651 3.69896 3.81416 3.65731 3.73676 3.60831C3.50375 3.46077 3.34037 3.22921 3.01362 2.76609C2.75896 2.40515 2.63163 2.22468 2.67553 2.07712C2.68942 2.03043 2.71392 1.98717 2.74733 1.95035C2.85292 1.83398 3.08246 1.83398 3.54155 1.83398H12.4591C12.9182 1.83398 13.1477 1.83398 13.2533 1.95035C13.2867 1.98717 13.3112 2.03043 13.3251 2.07712C13.369 2.22468 13.2417 2.40515 12.987 2.76609C12.6603 3.22921 12.4969 3.46077 12.2639 3.60831C12.1865 3.65731 12.1041 3.69896 12.0181 3.73262C11.7589 3.83398 11.4644 3.83398 10.8753 3.83398Z" stroke="currentColor" stroke-width="1.5" stroke-linecap="round"/>
<path d="M9.33366 5.83398V3.83398M6.66699 5.83398V3.83398" stroke="currentColor" stroke-width="1.5" stroke-linecap="round"/>
</svg>
